<mxfile host="app.diagrams.net" modified="2021-03-02T08:28:59.012Z" agent="5.0 (Windows NT 10.0; Win64; x64) AppleWebKit/537.36 (KHTML, like Gecko) Chrome/88.0.4324.190 Safari/537.36" etag="dr-vS2ssqeem99e2n_SV" version="14.4.3" type="github">
  <diagram id="xP-UbZOYQgpmJ7Vazrc-" name="Page-1">
    <mxGraphModel dx="1422" dy="716" grid="1" gridSize="10" guides="1" tooltips="1" connect="1" arrows="1" fold="1" page="1" pageScale="1" pageWidth="827" pageHeight="1169" math="0" shadow="0">
      <root>
        <mxCell id="0" />
        <mxCell id="1" parent="0" />
        <mxCell id="XT266PThRBWKrwN8U2PL-3" value="" style="edgeStyle=orthogonalEdgeStyle;rounded=0;orthogonalLoop=1;jettySize=auto;html=1;" edge="1" parent="1" source="XT266PThRBWKrwN8U2PL-1" target="XT266PThRBWKrwN8U2PL-2">
          <mxGeometry relative="1" as="geometry" />
        </mxCell>
        <mxCell id="XT266PThRBWKrwN8U2PL-1" value="user用户" style="rounded=0;whiteSpace=wrap;html=1;" vertex="1" parent="1">
          <mxGeometry x="350" y="130" width="120" height="30" as="geometry" />
        </mxCell>
        <mxCell id="XT266PThRBWKrwN8U2PL-5" value="" style="edgeStyle=orthogonalEdgeStyle;rounded=0;orthogonalLoop=1;jettySize=auto;html=1;" edge="1" parent="1" source="XT266PThRBWKrwN8U2PL-2" target="XT266PThRBWKrwN8U2PL-4">
          <mxGeometry relative="1" as="geometry" />
        </mxCell>
        <mxCell id="XT266PThRBWKrwN8U2PL-2" value="role 角色" style="rounded=0;whiteSpace=wrap;html=1;" vertex="1" parent="1">
          <mxGeometry x="350" y="210" width="120" height="30" as="geometry" />
        </mxCell>
        <mxCell id="XT266PThRBWKrwN8U2PL-4" value="permission 权限标识" style="rounded=0;whiteSpace=wrap;html=1;" vertex="1" parent="1">
          <mxGeometry x="350" y="270" width="120" height="30" as="geometry" />
        </mxCell>
        <mxCell id="XT266PThRBWKrwN8U2PL-12" value="" style="group" vertex="1" connectable="0" parent="1">
          <mxGeometry x="80" y="350" width="250" height="250" as="geometry" />
        </mxCell>
        <mxCell id="XT266PThRBWKrwN8U2PL-13" value="&lt;br&gt;&lt;br&gt;&lt;br&gt;&lt;br&gt;&lt;br&gt;&lt;br&gt;&lt;br&gt;&lt;br&gt;&lt;br&gt;&lt;br&gt;&lt;br&gt;&lt;br&gt;&lt;br&gt;&lt;br&gt;required" style="whiteSpace=wrap;html=1;aspect=fixed;" vertex="1" parent="XT266PThRBWKrwN8U2PL-12">
          <mxGeometry width="250" height="250" as="geometry" />
        </mxCell>
        <mxCell id="XT266PThRBWKrwN8U2PL-14" value="resource 资源标识" style="rounded=0;whiteSpace=wrap;html=1;" vertex="1" parent="XT266PThRBWKrwN8U2PL-12">
          <mxGeometry x="30" y="20" width="180" height="40" as="geometry" />
        </mxCell>
        <mxCell id="XT266PThRBWKrwN8U2PL-15" value="logic-rs 逻辑标识" style="rounded=0;whiteSpace=wrap;html=1;" vertex="1" parent="XT266PThRBWKrwN8U2PL-12">
          <mxGeometry x="30" y="80" width="180" height="40" as="geometry" />
        </mxCell>
        <mxCell id="XT266PThRBWKrwN8U2PL-16" value="real-rs 实体资源" style="rounded=0;whiteSpace=wrap;html=1;" vertex="1" parent="XT266PThRBWKrwN8U2PL-12">
          <mxGeometry x="30" y="140" width="180" height="40" as="geometry" />
        </mxCell>
        <mxCell id="XT266PThRBWKrwN8U2PL-23" value="" style="group" vertex="1" connectable="0" parent="1">
          <mxGeometry x="500" y="350" width="250" height="250" as="geometry" />
        </mxCell>
        <mxCell id="XT266PThRBWKrwN8U2PL-17" value="" style="whiteSpace=wrap;html=1;aspect=fixed;dashed=1;dashPattern=1 2;strokeColor=#000000;fillColor=#ffffff;" vertex="1" parent="XT266PThRBWKrwN8U2PL-23">
          <mxGeometry width="250" height="250" as="geometry" />
        </mxCell>
        <mxCell id="XT266PThRBWKrwN8U2PL-19" value="condition 条件标识" style="rounded=0;whiteSpace=wrap;html=1;strokeColor=#000000;fillColor=#ffffff;" vertex="1" parent="XT266PThRBWKrwN8U2PL-23">
          <mxGeometry x="30" y="20" width="190" height="30" as="geometry" />
        </mxCell>
        <mxCell id="XT266PThRBWKrwN8U2PL-20" value="org condition可见组织范围" style="rounded=0;whiteSpace=wrap;html=1;strokeColor=#000000;fillColor=#ffffff;" vertex="1" parent="XT266PThRBWKrwN8U2PL-23">
          <mxGeometry x="30" y="70" width="190" height="30" as="geometry" />
        </mxCell>
        <mxCell id="XT266PThRBWKrwN8U2PL-21" value="time condition 时间限定" style="rounded=0;whiteSpace=wrap;html=1;strokeColor=#000000;fillColor=#ffffff;" vertex="1" parent="XT266PThRBWKrwN8U2PL-23">
          <mxGeometry x="30" y="120" width="190" height="30" as="geometry" />
        </mxCell>
        <mxCell id="XT266PThRBWKrwN8U2PL-22" value="其他限定" style="rounded=0;whiteSpace=wrap;html=1;strokeColor=#000000;fillColor=#ffffff;" vertex="1" parent="XT266PThRBWKrwN8U2PL-23">
          <mxGeometry x="30" y="170" width="190" height="30" as="geometry" />
        </mxCell>
        <mxCell id="XT266PThRBWKrwN8U2PL-24" style="edgeStyle=orthogonalEdgeStyle;rounded=0;orthogonalLoop=1;jettySize=auto;html=1;exitX=0.5;exitY=0;exitDx=0;exitDy=0;entryX=0.5;entryY=1;entryDx=0;entryDy=0;" edge="1" parent="1" source="XT266PThRBWKrwN8U2PL-13" target="XT266PThRBWKrwN8U2PL-4">
          <mxGeometry relative="1" as="geometry" />
        </mxCell>
        <mxCell id="XT266PThRBWKrwN8U2PL-25" style="edgeStyle=orthogonalEdgeStyle;rounded=0;orthogonalLoop=1;jettySize=auto;html=1;exitX=0.5;exitY=0;exitDx=0;exitDy=0;" edge="1" parent="1" source="XT266PThRBWKrwN8U2PL-17">
          <mxGeometry relative="1" as="geometry">
            <mxPoint x="410" y="300" as="targetPoint" />
          </mxGeometry>
        </mxCell>
      </root>
    </mxGraphModel>
  </diagram>
</mxfile>
